<svg width="46" height="39" viewBox="0 0 46 39" fill="none" xmlns="http://www.w3.org/2000/svg">
<path d="M42 0H10.5C9.57174 0 8.6815 0.368749 8.02513 1.02513C7.36875 1.6815 7 2.57174 7 3.5V7H3.5C2.57174 7 1.6815 7.36875 1.02513 8.02513C0.368749 8.6815 0 9.57174 0 10.5V35C0 35.9283 0.368749 36.8185 1.02513 37.4749C1.6815 38.1312 2.57174 38.5 3.5 38.5H35C35.9283 38.5 36.8185 38.1312 37.4749 37.4749C38.1312 36.8185 38.5 35.9283 38.5 35V31.5H42C42.9283 31.5 43.8185 31.1313 44.4749 30.4749C45.1312 29.8185 45.5 28.9283 45.5 28V3.5C45.5 2.57174 45.1312 1.6815 44.4749 1.02513C43.8185 0.368749 42.9283 0 42 0ZM32.375 7C32.8942 7 33.4017 7.15395 33.8334 7.44239C34.265 7.73083 34.6015 8.1408 34.8002 8.62046C34.9989 9.10011 35.0508 9.62791 34.9496 10.1371C34.8483 10.6463 34.5983 11.114 34.2312 11.4812C33.864 11.8483 33.3963 12.0983 32.8871 12.1996C32.3779 12.3008 31.8501 12.2489 31.3705 12.0502C30.8908 11.8515 30.4808 11.515 30.1924 11.0834C29.904 10.6517 29.75 10.1442 29.75 9.625C29.75 8.92881 30.0266 8.26113 30.5188 7.76884C31.0111 7.27656 31.6788 7 32.375 7ZM35 35H3.5V10.5H7V28C7 28.9283 7.36875 29.8185 8.02513 30.4749C8.6815 31.1313 9.57174 31.5 10.5 31.5H35V35ZM42 28H10.5V17.6509L17.1369 11.0119C17.2994 10.8492 17.4924 10.7201 17.7049 10.632C17.9173 10.544 18.145 10.4986 18.375 10.4986C18.605 10.4986 18.8327 10.544 19.0451 10.632C19.2576 10.7201 19.4506 10.8492 19.6131 11.0119L30.4741 21.875L36.0938 16.2619C36.4219 15.9339 36.8669 15.7497 37.3308 15.7497C37.7947 15.7497 38.2397 15.9339 38.5678 16.2619L42 19.7028V28Z" fill="#767676"/>
</svg>
