<svg width="101" height="103" viewBox="0 0 101 103" fill="none" xmlns="http://www.w3.org/2000/svg">
<g clip-path="url(#clip0_184_194)">
<rect width="100.659" height="103" fill="white"/>
<mask id="mask0_184_194" style="mask-type:luminance" maskUnits="userSpaceOnUse" x="0" y="0" width="101" height="103">
<path d="M100.659 0H0V103H100.659V0Z" fill="white"/>
</mask>
<g mask="url(#mask0_184_194)">
<g opacity="0.960239">
<path d="M56.2698 14.7793C57.8884 15.0631 58.9721 16.6078 58.6883 18.2265C58.4044 19.8451 56.8597 20.9288 55.2411 20.645C53.6225 20.3611 52.5387 18.8164 52.8226 17.1978C53.1064 15.5792 54.6511 14.4954 56.2698 14.7793Z" fill="#FFC480"/>
<path d="M44.6116 81.2572C46.2302 81.5411 47.3139 83.0857 47.0301 84.7044C46.7462 86.323 45.2015 87.4068 43.5829 87.1229C41.9643 86.839 40.8805 85.2943 41.1644 83.6757C41.4482 82.0571 42.9929 80.9733 44.6116 81.2572Z" fill="#E6B3B1"/>
<path d="M78.0178 28.6701C79.6365 28.954 80.7202 30.4986 80.4363 32.1173C80.1525 33.7359 78.6078 34.8197 76.9891 34.5358C75.3705 34.2519 74.2868 32.7073 74.5706 31.0886C74.8545 29.47 76.3992 28.3862 78.0178 28.6701Z" fill="#E6B3B1"/>
<path d="M83.508 54.8249C85.1267 55.1088 86.2104 56.6535 85.9266 58.2721C85.6427 59.8908 84.098 60.9745 82.4794 60.6906C80.8607 60.4068 79.777 58.8621 80.0609 57.2435C80.3447 55.6248 81.8894 54.5411 83.508 54.8249Z" fill="#2AD5CB"/>
<path d="M17.0305 43.1667C18.6491 43.4506 19.7329 44.9953 19.449 46.6139C19.1652 48.2326 17.6205 49.3163 16.0018 49.0324C14.3832 48.7486 13.2995 47.2039 13.5833 45.5853C13.8672 43.9666 15.4119 42.8829 17.0305 43.1667Z" fill="#FFC480"/>
<path d="M69.7893 75.5957C71.4079 75.8796 72.4917 77.4242 72.2078 79.0429C71.9239 80.6615 70.3793 81.7453 68.7606 81.4614C67.142 81.1775 66.0583 79.6328 66.3421 78.0142C66.626 76.3956 68.1707 75.3118 69.7893 75.5957Z" fill="#C7DFD9"/>
<path d="M31.093 20.4408C32.7116 20.7246 33.7954 22.2693 33.5115 23.8879C33.2277 25.5066 31.683 26.5903 30.0643 26.3065C28.4457 26.0226 27.362 24.4779 27.6458 22.8593C27.9297 21.2406 29.4744 20.1569 31.093 20.4408Z" fill="#37B99C"/>
<path d="M22.8635 67.3664C24.4822 67.6502 25.5659 69.1949 25.282 70.8135C24.9982 72.4322 23.4535 73.5159 21.8348 73.2321C20.2162 72.9482 19.1325 71.4035 19.4163 69.7849C19.7002 68.1662 21.2449 67.0825 22.8635 67.3664Z" fill="#6AE6D6"/>
</g>
<path d="M50.1467 25.1285C64.6812 25.1284 76.4821 36.9291 76.4822 51.4635C76.4823 65.9979 64.6816 77.7988 50.1472 77.7989C35.6127 77.7991 23.8118 65.9983 23.8117 51.4639C23.8116 36.9295 35.6123 25.1286 50.1467 25.1285Z" fill="black"/>
<path d="M47.2276 57.914L59.7256 46.2093L58.1254 44.5007L45.6275 56.2054L47.2276 57.914ZM40.5376 52.7818L45.5964 57.8838L47.2587 56.2356L42.1999 51.1337L40.5376 52.7818ZM59.7256 46.2093C60.1974 45.7675 60.2217 45.0268 59.7798 44.555C59.338 44.0831 58.5972 44.0589 58.1254 44.5007L59.7256 46.2093ZM46.4276 57.0597L45.5964 57.8838C46.0424 58.3336 46.7653 58.347 47.2276 57.914L46.4276 57.0597ZM42.1999 51.1337C41.7447 50.6746 41.0037 50.6715 40.5446 51.1266C40.0856 51.5818 40.0825 52.3229 40.5376 52.7818L42.1999 51.1337Z" fill="white"/>
</g>
</g>
<defs>
<clipPath id="clip0_184_194">
<rect width="100.659" height="103" fill="white"/>
</clipPath>
</defs>
</svg>
